# xmcd
#
# Track frame offsets: 
#        150
#        13765
#        29642
#        45240
#        60130
#        79365
#        93640
#        111510
#        123275
#        134117
#
# Disc length: 1956 seconds
#
# Revision: 4
# Processed by: cddbd v1.5PL3 Copyright (c) Steve Scherf et al.
# Submitted via: ExactAudioCopy v0.90b4
#
DISCID=8707a20a
DTITLE=Chris LeDoux - Western Underground
DYEAR=1991
DGENRE=Country
TTITLE0=County Fair
TTITLE1=Riding For A Fall
TTITLE2=Thank The Cowboy For The Ride
TTITLE3=Cadillac Cowboy
TTITLE4=This Cowboy's Hat
TTITLE5=Shot Full Of Love
TTITLE6=The Last Drive In
TTITLE7=Yellow Brick Road Turns Blue
TTITLE8=Settin' The Woods On Fire
TTITLE9=Workin' Man's Dollar
EXTD=
EXTT0=
EXTT1=
EXTT2=
EXTT3=
EXTT4=
EXTT5=
EXTT6=
EXTT7=
EXTT8=
EXTT9=
PLAYORDER=
